<?xml version="1.0" encoding="UTF-8" standalone="no"?>
<svg
   xmlns:dc="http://purl.org/dc/elements/1.1/"
   xmlns:cc="http://creativecommons.org/ns#"
   xmlns:rdf="http://www.w3.org/1999/02/22-rdf-syntax-ns#"
   xmlns:svg="http://www.w3.org/2000/svg"
   xmlns="http://www.w3.org/2000/svg"
   xmlns:sodipodi="http://sodipodi.sourceforge.net/DTD/sodipodi-0.dtd"
   xmlns:inkscape="http://www.inkscape.org/namespaces/inkscape"
   class="logo--small"
   version="1.1"
   id="Layer_1"
   x="0px"
   y="0px"
   viewBox="0 0 58 58"
   xml:space="preserve"
   sodipodi:docname="golem.svg"
   width="58"
   height="58"
   inkscape:version="0.92.3 (2405546, 2018-03-11)"><metadata
   id="metadata3767"><rdf:RDF><cc:Work
       rdf:about=""><dc:format>image/svg+xml</dc:format><dc:type
         rdf:resource="http://purl.org/dc/dcmitype/StillImage" /><dc:title /></cc:Work></rdf:RDF></metadata><defs
   id="defs3765" /><sodipodi:namedview
   pagecolor="#ffffff"
   bordercolor="#666666"
   borderopacity="1"
   objecttolerance="10"
   gridtolerance="10"
   guidetolerance="10"
   inkscape:pageopacity="0"
   inkscape:pageshadow="2"
   inkscape:window-width="1853"
   inkscape:window-height="1016"
   id="namedview3763"
   showgrid="false"
   scale-x="1"
   fit-margin-top="5"
   fit-margin-left="17.095"
   fit-margin-right="17.095"
   fit-margin-bottom="5"
   inkscape:zoom="17.75"
   inkscape:cx="19.424352"
   inkscape:cy="34"
   inkscape:window-x="67"
   inkscape:window-y="27"
   inkscape:window-maximized="1"
   inkscape:current-layer="Layer_1"
   units="cm" />
<path
   d="M 38.46,5 33.465,9.995 C 31.77,8.787 29.699,8.073 27.463,8.073 c -5.717,0 -10.368,4.651 -10.368,10.367 0,5.128 3.743,9.396 8.64,10.221 v 3.749 c -4.897,0.826 -8.64,5.094 -8.64,10.222 0,5.717 4.651,10.368 10.368,10.368 5.717,0 10.368,-4.651 10.368,-10.368 0,-5.128 -3.743,-9.396 -8.64,-10.221 v -3.749 c 4.897,-0.825 8.64,-5.093 8.64,-10.221 0,-2.236 -0.714,-4.307 -1.922,-6.002 l 4.995,-4.995 z m -4.085,37.632 c 0,3.811 -3.101,6.912 -6.912,6.912 -3.811,0 -6.912,-3.101 -6.912,-6.912 0,-3.811 3.101,-6.912 6.912,-6.912 3.811,0 6.912,3.101 6.912,6.912 z m -6.912,-17.28 c -3.811,0 -6.912,-3.101 -6.912,-6.912 0,-3.811 3.101,-6.912 6.912,-6.912 3.811,0 6.912,3.101 6.912,6.912 0,3.811 -3.101,6.912 -6.912,6.912 z"
   id="path3760"
   inkscape:connector-curvature="0"
   style="fill:#0000c8;fill-opacity:1;stroke:#ffffff;stroke-opacity:1;stroke-width:0.5;stroke-miterlimit:4;stroke-dasharray:none" />
</svg>