<?xml version="1.0" encoding="UTF-8" standalone="no"?>
<svg
   xmlns:dc="http://purl.org/dc/elements/1.1/"
   xmlns:cc="http://creativecommons.org/ns#"
   xmlns:rdf="http://www.w3.org/1999/02/22-rdf-syntax-ns#"
   xmlns:svg="http://www.w3.org/2000/svg"
   xmlns="http://www.w3.org/2000/svg"
   height="58"
   width="58"
   xml:space="preserve"
   viewBox="0 0 58 58"
   y="0px"
   x="0px"
   id="Layer_1"
   version="1.1"
   class="logo--small"><metadata
   id="metadata3767"><rdf:RDF><cc:Work
       rdf:about=""><dc:format>image/svg+xml</dc:format><dc:type
         rdf:resource="http://purl.org/dc/dcmitype/StillImage" /><dc:title></dc:title></cc:Work></rdf:RDF></metadata><defs
   id="defs3765" />
<path
   style="fill:#ffffff;fill-opacity:1;stroke:#323232;stroke-width:1.11874016;stroke-miterlimit:4;stroke-dasharray:none;stroke-opacity:1"
   id="path3760"
   d="m 37.023615,8.6653054 -4.229261,4.2292616 c -1.435155,-1.022813 -3.188668,-1.627356 -5.081887,-1.627356 -4.840578,0 -8.778575,3.937997 -8.778575,8.777728 0,4.341872 3.169194,7.955584 7.315479,8.65411 v 3.174275 c -4.146285,0.699373 -7.315479,4.313084 -7.315479,8.654956 0,4.840578 3.937997,8.778575 8.778575,8.778575 4.840578,0 8.778575,-3.937997 8.778575,-8.778575 0,-4.341872 -3.169195,-7.955583 -7.315479,-8.65411 v -3.174274 c 4.146284,-0.698527 7.315479,-4.312238 7.315479,-8.65411 0,-1.893219 -0.604543,-3.646732 -1.627356,-5.081887 l 4.229261,-4.229261 z M 33.56485,40.52828 c 0,3.22677 -2.625613,5.852383 -5.852383,5.852383 -3.22677,0 -5.852383,-2.625613 -5.852383,-5.852383 0,-3.22677 2.625613,-5.852383 5.852383,-5.852383 3.22677,0 5.852383,2.625613 5.852383,5.852383 z M 27.712467,25.897322 c -3.22677,0 -5.852383,-2.625613 -5.852383,-5.852383 0,-3.226769 2.625613,-5.852383 5.852383,-5.852383 3.22677,0 5.852383,2.625614 5.852383,5.852383 0,3.22677 -2.625613,5.852383 -5.852383,5.852383 z" />
</svg>